<?xml version="1.0" encoding="utf-8"?>
<svg xmlns="http://www.w3.org/2000/svg" viewBox="261.119 174.917 18 18" style="width: 20px" width="18px" height="18px">
  <path d="M 267.619 179.917 C 267.619 179.917 267.894 183.347 269.291 184.744 C 270.688 186.141 274.119 186.417 274.119 186.417 C 274.119 186.417 270.688 186.692 269.291 188.089 C 267.894 189.486 267.619 192.917 267.619 192.917 C 267.619 192.917 267.343 189.486 265.946 188.089 C 264.549 186.692 261.119 186.417 261.119 186.417 C 261.119 186.417 264.549 186.141 265.946 184.744 C 267.343 183.347 267.619 179.917 267.619 179.917 Z" stroke-linecap="round" stroke-linejoin="round" style="paint-order: fill; stroke: rgb(96, 173, 255); fill: rgb(96, 173, 255);"/>
  <path d="M 275.119 174.917 C 275.119 174.917 275.288 177.028 276.148 177.887 C 277.008 178.747 279.119 178.917 279.119 178.917 C 279.119 178.917 277.008 179.086 276.148 179.946 C 275.288 180.805 275.119 182.917 275.119 182.917 C 275.119 182.917 274.949 180.805 274.09 179.946 C 273.23 179.086 271.119 178.917 271.119 178.917 C 271.119 178.917 273.23 178.747 274.09 177.887 C 274.949 177.028 275.119 174.917 275.119 174.917 Z" stroke-linecap="round" stroke-linejoin="round" style="paint-order: fill; stroke: rgb(96, 173, 255); fill: rgb(96, 173, 255);"/>
</svg>